HIERARCHY
ROOT Hips
{
 OFFSET 0.000000 0.000000 0.000000
 CHANNELS 6 Xposition Yposition Zposition Yrotation Xrotation Zrotation
 JOINT Chest
 {
  OFFSET 0.000000 9.585900 0.002600
  CHANNELS 3 Yrotation Xrotation Zrotation
  JOINT Chest2
  {
   OFFSET 0.000000 9.601200 -0.005300
   CHANNELS 3 Yrotation Xrotation Zrotation
   JOINT Chest3
   {
    OFFSET 0.000000 9.561800 0.000000
    CHANNELS 3 Yrotation Xrotation Zrotation
    JOINT Chest4
    {
     OFFSET 0.000000 9.552100 0.000000
     CHANNELS 3 Yrotation Xrotation Zrotation
     JOINT Neck
     {
      OFFSET 0.000000 14.453000 0.000000
      CHANNELS 3 Yrotation Xrotation Zrotation
      JOINT Head
      {
       OFFSET 0.000000 8.936500 -0.011300
       CHANNELS 3 Yrotation Xrotation Zrotation
       End Site
       {
        OFFSET 0.000000 17.073600 -0.006000
       }
      }
     }
     JOINT RightCollar
     {
      OFFSET -2.921100 9.558500 0.000000
      CHANNELS 3 Yrotation Xrotation Zrotation
      JOINT RightShoulder
      {
       OFFSET -13.519700 0.000000 0.000000
       CHANNELS 3 Yrotation Xrotation Zrotation
       JOINT RightElbow
       {
        OFFSET 0.000000 -29.696600 0.000000
        CHANNELS 3 Yrotation Xrotation Zrotation
        JOINT RightWrist
        {
         OFFSET 0.000000 -24.004700 0.000000
         CHANNELS 3 Yrotation Xrotation Zrotation
         End Site
         {
          OFFSET 0.000000 -17.728500 0.000000
         }
        }
       }
      }
     }
     JOINT LeftCollar
     {
      OFFSET 2.921100 9.558500 0.000000
      CHANNELS 3 Yrotation Xrotation Zrotation
      JOINT LeftShoulder
      {
       OFFSET 13.519700 0.000000 0.000000
       CHANNELS 3 Yrotation Xrotation Zrotation
       JOINT LeftElbow
       {
        OFFSET 0.000000 -29.696600 0.000000
        CHANNELS 3 Yrotation Xrotation Zrotation
        JOINT LeftWrist
        {
         OFFSET 0.000000 -24.004700 0.000000
         CHANNELS 3 Yrotation Xrotation Zrotation
         End Site
         {
          OFFSET 0.000000 -17.728500 0.000000
         }
        }
       }
      }
     }
    }
   }
  }
 }
 JOINT RightHip
 {
  OFFSET -7.771700 -0.012900 -0.001300
  CHANNELS 3 Yrotation Xrotation Zrotation
  JOINT RightKnee
  {
   OFFSET 0.000000 -40.869800 0.001200
   CHANNELS 3 Yrotation Xrotation Zrotation
   JOINT RightAnkle
   {
    OFFSET 0.000000 -39.717900 0.002100
    CHANNELS 3 Yrotation Xrotation Zrotation
    JOINT RightToe
    {
     OFFSET 0.000000 -4.965400 11.033500
     CHANNELS 3 Yrotation Xrotation Zrotation
     End Site
     {
      OFFSET 0.000000 -1.423100 5.872300
     }
    }
   }
  }
 }
 JOINT LeftHip
 {
  OFFSET 7.771700 -0.012900 -0.001300
  CHANNELS 3 Yrotation Xrotation Zrotation
  JOINT LeftKnee
  {
   OFFSET 0.000000 -40.869800 0.001200
   CHANNELS 3 Yrotation Xrotation Zrotation
   JOINT LeftAnkle
   {
    OFFSET 0.000000 -39.717900 0.002100
    CHANNELS 3 Yrotation Xrotation Zrotation
    JOINT LeftToe
    {
     OFFSET 0.000000 -4.965400 11.033500
     CHANNELS 3 Yrotation Xrotation Zrotation
     End Site
     {
      OFFSET 0.000000 -1.423100 5.872300
     }
    }
   }
  }
 }
}
MOTION
Frames: 12
Frame Time: 0.008333
0.000000 85.388000 0.000000 0.000000 -5.767877 0.000000 0.000000 11.653817 0.000000 0.000000 -5.885947 0.000000 0.000000 -0.000000 0.000000 0.000000 -0.000000 0.000000 0.000000 12.528835 0.000000 0.000000 0.711642 0.000000 0.000000 -0.000000 0.000000 0.000000 0.000000 -90.000000 0.000000 -2.309062 0.000000 0.000000 2.309062 0.000000 0.000000 -0.000000 0.000000 0.000000 -0.000000 90.000000 0.000000 -2.309062 0.000000 0.000000 2.309062 0.000000 0.000000 8.520406 0.000000 0.000000 1.905762 0.000000 -0.000000 -4.658285 0.000000 0.000000 -0.000000 0.000000 0.000000 8.520406 0.000000 0.000000 1.905762 0.000000 -0.000000 -4.658285 0.000000 0.000000 -0.000000 0.000000
-52.483510 50.148505 36.528542 174.386092 -34.973661 -5.202398 7.078907 23.291436 6.361818 0.923802 3.670570 0.727038 1.524992 5.936657 1.226684 5.688707 19.458724 4.781188 -3.838831 17.401718 1.283086 -7.513361 -3.304903 3.654007 1.016198 0.265935 -3.967574 5.093563 -13.989541 -7.774177 -156.959822 -49.926555 155.504524 -9.113210 -11.117133 40.391483 -13.667320 0.779315 -1.255381 3.990679 -22.616388 4.956437 126.696668 -41.456278 -154.895026 42.159157 2.271101 -38.226421 2.914552 -46.906581 7.036172 -41.510816 86.749933 -30.176570 -3.190308 -6.276289 -4.007603 -0.003170 0.133679 0.036927 -10.845780 -50.151596 15.774754 -123.038047 87.226647 -130.346118 0.092581 -7.879943 4.160163 -0.027041 -0.256909 0.008558
-52.479903 50.147619 36.527357 174.380714 -34.975271 -5.194934 7.110507 23.363395 6.406418 0.909910 3.623977 0.700254 1.559351 6.036427 1.270642 5.712170 19.499219 4.805470 -3.788146 17.472369 1.299745 -7.421572 -3.176034 3.663108 0.985656 0.382334 -3.949868 5.152279 -14.021862 -7.808662 -157.116384 -49.767695 155.692203 -9.100297 -11.125511 40.277965 -13.715903 0.862964 -1.246614 3.810122 -22.766317 5.007876 126.640232 -41.351064 -154.878861 42.158494 2.332198 -38.284466 2.912588 -46.921382 7.046909 -41.697162 86.758855 -30.363348 -3.230975 -6.230048 -4.017388 0.010142 0.108245 0.036292 -10.811944 -50.150518 15.759791 -122.961076 87.223995 -130.262804 0.085177 -7.887011 4.163583 -0.027286 -0.253756 0.009228
-52.463026 50.138372 36.542423 174.420240 -34.866951 -5.299749 7.112159 23.283107 6.504692 0.946367 3.744718 0.757468 1.546401 5.994899 1.243607 5.737099 19.533065 4.826425 -3.737552 17.547289 1.320723 -7.331210 -3.038791 3.680108 0.956773 0.503359 -3.928530 5.226094 -14.048592 -7.828775 -157.257235 -49.638480 155.848218 -9.086026 -11.126391 40.165813 -13.761894 0.949822 -1.236585 3.619834 -22.912472 5.054323 126.554778 -41.285581 -154.811048 42.147281 2.429975 -38.379232 2.778867 -47.038576 7.177967 -41.236277 86.753711 -29.899903 -3.248979 -6.181437 -4.030802 0.008427 0.106168 0.030633 -11.002928 -50.356737 15.956820 -124.617490 87.156632 -131.918974 0.140867 -7.647557 4.185069 -0.070952 -0.483912 -0.011762
-52.460018 50.137421 36.542770 174.382266 -34.852628 -5.269095 7.151307 23.300172 6.514752 0.965245 3.811375 0.786037 1.532659 5.948544 1.220737 5.789777 19.609594 4.869589 -3.685976 17.626952 1.346615 -7.240458 -2.892420 3.705570 0.927122 0.625990 -3.903512 5.308313 -14.072612 -7.835346 -157.362519 -49.536168 155.961341 -9.071067 -11.117763 40.081524 -13.803579 1.037939 -1.224142 3.418631 -23.054110 5.099676 126.454346 -41.257712 -154.705960 42.098044 2.531508 -38.484934 2.814131 -47.072011 7.183872 -41.481821 86.754451 -30.159766 -3.251271 -6.150439 -4.023854 0.010904 0.093126 0.031648 -10.932637 -50.373151 15.932958 -124.534140 87.153266 -131.827318 0.134912 -7.652384 4.196450 -0.075439 -0.483814 -0.015070
-52.456774 50.137762 36.542713 174.345266 -34.838331 -5.243089 7.197504 23.344728 6.547381 0.971211 3.823776 0.783450 1.527858 5.924746 1.212455 5.845019 19.681668 4.904245 -3.632297 17.709552 1.378050 -7.147438 -2.740431 3.740299 0.891909 0.742029 -3.874252 5.390424 -14.093831 -7.828137 -157.416254 -49.456982 156.025104 -9.052978 -11.098698 40.045332 -13.846888 1.122810 -1.208568 3.209608 -23.192151 5.147853 126.367356 -41.266382 -154.585909 42.016734 2.613563 -38.575920 2.849315 -47.099236 7.177444 -41.465769 86.762243 -30.143671 -3.234833 -6.124635 -4.028028 -0.043971 0.084276 0.030756 -10.863979 -50.389570 15.906723 -124.447480 87.153402 -131.724060 0.134057 -7.654978 4.203052 -0.078452 -0.485211 -0.022306
-52.468692 50.146498 36.527899 174.251137 -34.915540 -5.090058 7.261330 23.484128 6.479635 0.977032 3.837735 0.789297 1.568353 6.020505 1.244180 5.843304 19.636907 4.885524 -3.578181 17.789304 1.411264 -7.054305 -2.593612 3.778498 0.852023 0.847342 -3.847708 5.462435 -14.115068 -7.803706 -157.424785 -49.398476 156.051790 -9.034428 -11.066798 40.065093 -13.894311 1.200297 -1.190565 2.998617 -23.327603 5.195406 126.329607 -41.315462 -154.471579 41.925677 2.666587 -38.636635 3.035356 -47.037508 7.033903 -41.165984 86.807081 -29.850427 -3.276065 -6.124728 -4.020026 0.022353 0.090630 0.026005 -10.547169 -50.218606 15.647639 -122.636529 87.226299 -129.878842 0.066538 -7.898692 4.187443 -0.031621 -0.255094 -0.002404
-52.467751 50.148817 36.527220 174.197281 -34.898969 -5.051468 7.313757 23.520535 6.499598 0.986528 3.853371 0.792668 1.590145 6.066838 1.259160 5.866488 19.640449 4.888640 -3.528522 17.858572 1.441341 -6.969099 -2.466200 3.813207 0.806054 0.943792 -3.829470 5.522456 -14.140267 -7.762209 -157.404429 -49.359450 156.057371 -9.014592 -11.022028 40.136536 -13.945747 1.268030 -1.170940 2.788031 -23.456599 5.239496 126.363186 -41.403274 -154.377483 41.834537 2.685918 -38.647780 3.094164 -47.066604 7.028249 -41.189005 86.805562 -29.865875 -3.324999 -6.107653 -4.016210 0.016150 0.118613 0.017018 -10.415132 -50.242161 15.572213 -122.634828 87.233619 -129.824605 0.067634 -7.906128 4.187047 -0.034290 -0.253808 -0.002962
-52.467001 50.152130 36.526026 174.150346 -34.883031 -5.021886 7.362810 23.559075 6.525455 0.987679 3.831149 0.780674 1.617071 6.122954 1.280484 5.900942 19.666030 4.905284 -3.488106 17.914288 1.467594 -6.900446 -2.363701 3.844772 0.754411 1.033748 -3.817067 5.573475 -14.165764 -7.709737 -157.369874 -49.335049 156.047878 -8.983743 -10.972330 40.239371 -14.005726 1.328588 -1.148393 2.579701 -23.576725 5.278937 126.482860 -41.526301 -154.311217 41.752457 2.677061 -38.593709 3.137861 -47.090074 7.016845 -41.038539 86.810987 -29.713640 -3.298673 -6.085542 -4.016459 0.017790 0.123579 0.012488 -10.344519 -50.256480 15.543158 -122.613777 87.239715 -129.784776 0.070356 -7.909222 4.186915 -0.032393 -0.257937 -0.006082
-52.467003 50.156627 36.523426 174.120194 -34.873061 -5.002542 7.422752 23.635329 6.577301 0.991810 3.822894 0.773581 1.624267 6.127794 1.279618 5.933935 19.690402 4.921628 -3.457936 17.959016 1.492477 -6.850701 -2.280972 3.877843 0.699951 1.117743 -3.804462 5.622215 -14.185583 -7.653079 -157.345216 -49.322198 156.037823 -8.937134 -10.924512 40.338314 -14.073512 1.386493 -1.121545 2.375256 -23.687717 5.313736 126.681722 -41.678035 -154.272621 41.680347 2.643737 -38.472266 3.170407 -47.101106 7.004369 -40.920380 86.813879 -29.594378 -3.258572 -6.073244 -4.017253 0.019685 0.125285 0.010962 -10.293947 -50.262172 15.517140 -122.677179 87.251668 -129.834699 0.069687 -7.913468 4.188633 -0.035965 -0.260446 -0.007859
-52.468544 50.160943 36.520744 174.094803 -34.859713 -4.981667 7.469395 23.681107 6.607758 1.001609 3.840355 0.778192 1.628883 6.132235 1.278216 5.964694 19.712910 4.935832 -3.436047 17.994398 1.516448 -6.816403 -2.215099 3.912478 0.647915 1.196455 -3.789268 5.666619 -14.201306 -7.595306 -157.362693 -49.323627 156.059195 -8.883983 -10.880748 40.397264 -14.141836 1.439061 -1.092936 2.174734 -23.785254 5.348768 126.923321 -41.838146 -154.253816 41.614162 2.589937 -38.290579 3.200416 -47.118867 6.998552 -41.020149 86.809831 -29.685469 -3.299244 -6.054096 -4.016995 0.018110 0.128290 0.008187 -10.249010 -50.270904 15.490761 -122.636732 87.257933 -129.787947 0.073783 -7.915285 4.195833 -0.038166 -0.263929 -0.011466
-52.470151 50.165120 36.517909 174.066574 -34.846003 -4.962631 7.509213 23.716725 6.629493 0.999805 3.820162 0.770389 1.634790 6.141955 1.280951 6.013397 19.776639 4.966265 -3.420274 18.018012 1.537944 -6.793162 -2.170828 3.945327 0.605440 1.266383 -3.773434 5.702300 -14.213838 -7.539952 -157.458466 -49.342013 156.141828 -8.834663 -10.850445 40.391684 -14.207740 1.478565 -1.065569 1.977587 -23.865917 5.388605 127.157726 -41.983240 -154.236223 41.554285 2.523581 -38.064484 3.228482 -47.137538 7.005581 -41.065336 86.805329 -29.716195 -3.397887 -6.037514 -4.020048 0.014767 0.130721 0.007105 -10.215976 -50.279049 15.475994 -122.615125 87.262081 -129.763660 0.077011 -7.917204 4.201316 -0.034334 -0.268587 -0.015664
